<svg xmlns="http://www.w3.org/2000/svg" x="0px" y="0px" width="100" height="100" viewBox="0 0 50 50">
<path d="M 25 2 C 12.309288 2 2 12.309297 2 25 C 2 37.690703 12.309288 48 25 48 C 37.690712 48 48 37.690703 48 25 C 48 12.309297 37.690712 2 25 2 z M 25 4 C 36.609833 4 46 13.390175 46 25 C 46 36.609825 36.609833 46 25 46 C 13.390167 46 4 36.609825 4 25 C 4 13.390175 13.390167 4 25 4 z M 14.636719 14.394531 C 12.640426 14.394531 11 16.033004 11 18.029297 L 11 32.091797 C 11 34.573412 13.03401 36.605469 15.515625 36.605469 L 30.453125 36.605469 C 32.93474 36.605469 34.96875 34.573412 34.96875 32.091797 L 34.96875 31.072266 C 39.171089 30.320232 42.359577 26.577015 41.966797 22.103516 C 41.57761 17.671107 37.691909 14.394531 33.287109 14.394531 L 14.636719 14.394531 z M 14.636719 16.394531 L 33.287109 16.394531 C 36.70231 16.394531 39.679796 18.921705 39.974609 22.279297 C 40.301446 26.001745 37.498921 29.11721 33.910156 29.326172 L 32.96875 29.380859 L 32.96875 32.091797 C 32.96875 33.492182 31.85351 34.605469 30.453125 34.605469 L 15.515625 34.605469 C 14.11524 34.605466 13 33.492182 13 32.091797 L 13 18.029297 C 13 17.11359 13.721012 16.394531 14.636719 16.394531 z M 32.970703 17.818359 L 32.970703 27.935547 L 34.080078 27.8125 C 36.564518 27.536032 38.484375 25.398372 38.484375 22.863281 C 38.484375 20.312286 36.586714 18.133428 34.056641 17.912109 L 32.970703 17.818359 z M 19.908203 19.886719 C 17.66975 19.886719 15.832031 21.724438 15.832031 23.962891 C 15.832031 25.158867 16.358618 26.251124 17.203125 26.990234 L 17.148438 26.939453 L 22.544922 32.416016 L 27.941406 26.939453 L 27.886719 26.990234 C 28.73206 26.251729 29.259136 25.158315 29.257812 23.960938 C 29.256712 21.723385 27.41943 19.886719 25.181641 19.886719 C 24.16042 19.886719 23.259857 20.325278 22.544922 20.962891 C 21.829987 20.325278 20.929424 19.886719 19.908203 19.886719 z M 34.970703 20.451172 C 35.824808 20.958201 36.484375 21.744314 36.484375 22.863281 C 36.484375 23.933381 35.818128 24.720832 34.970703 25.246094 L 34.970703 20.451172 z M 22.892578 21.207031 L 22.9375 21.255859 C 22.9326 21.250259 22.924862 21.247757 22.919922 21.242188 C 22.909042 21.230967 22.903708 21.218161 22.892578 21.207031 z M 22.195312 21.208984 C 22.184532 21.219844 22.180472 21.233191 22.169922 21.244141 C 22.165222 21.249441 22.156994 21.250539 22.152344 21.255859 L 22.195312 21.208984 z M 19.908203 21.886719 C 20.522227 21.886719 21.062751 22.150773 21.431641 22.572266 L 21.455078 22.597656 L 21.478516 22.621094 C 21.545966 22.688544 21.622109 22.789954 21.677734 22.886719 L 22.541016 24.388672 L 23.410156 22.890625 C 23.468176 22.790735 23.547059 22.687803 23.615234 22.619141 L 23.636719 22.595703 L 23.658203 22.572266 C 24.027093 22.150773 24.567617 21.886719 25.181641 21.886719 C 26.335188 21.886719 27.257812 22.809343 27.257812 23.962891 C 27.258489 24.575513 26.990972 25.11688 26.570312 25.484375 L 26.542969 25.509766 L 26.517578 25.537109 L 22.544922 29.568359 L 18.546875 25.509766 L 18.519531 25.486328 C 18.098038 25.117438 17.832031 24.576915 17.832031 23.962891 C 17.832031 22.809343 18.754656 21.886719 19.908203 21.886719 z"></path>
</svg>